<mxfile host="65bd71144e">
    <diagram id="sqPOIz0hAOlg7plKjDP9" name="Page-1">
        <mxGraphModel dx="1713" dy="840" grid="1" gridSize="10" guides="1" tooltips="1" connect="1" arrows="1" fold="1" page="1" pageScale="1" pageWidth="850" pageHeight="1100" math="0" shadow="0">
            <root>
                <mxCell id="0"/>
                <mxCell id="1" parent="0"/>
                <mxCell id="20" value="AWS Cloud" style="sketch=0;outlineConnect=0;gradientColor=none;html=1;whiteSpace=wrap;fontSize=12;fontStyle=0;shape=mxgraph.aws4.group;grIcon=mxgraph.aws4.group_aws_cloud;strokeColor=#FF8000;fillColor=default;verticalAlign=top;align=left;spacingLeft=30;fontColor=#AAB7B8;dashed=0;rounded=0;labelBackgroundColor=none;strokeWidth=2;" parent="1" vertex="1">
                    <mxGeometry x="40" y="140" width="610" height="540" as="geometry"/>
                </mxCell>
                <mxCell id="19" value="" style="verticalLabelPosition=bottom;verticalAlign=top;html=1;shape=mxgraph.basic.rect;fillColor2=none;strokeWidth=1;size=20;indent=5;labelBackgroundColor=none;strokeColor=#FFFFFF;fontColor=#FFFFFF;fillColor=#330066;opacity=40;" parent="1" vertex="1">
                    <mxGeometry x="200" y="720" width="450" height="120" as="geometry"/>
                </mxCell>
                <mxCell id="2" value="EC2 instance" style="points=[[0,0],[0.25,0],[0.5,0],[0.75,0],[1,0],[1,0.25],[1,0.5],[1,0.75],[1,1],[0.75,1],[0.5,1],[0.25,1],[0,1],[0,0.75],[0,0.5],[0,0.25]];outlineConnect=0;gradientColor=none;html=1;whiteSpace=wrap;fontSize=12;fontStyle=0;container=1;pointerEvents=0;collapsible=0;recursiveResize=0;shape=mxgraph.aws4.group;grIcon=mxgraph.aws4.group_ec2_instance_contents;strokeColor=#D86613;fillColor=#331A00;verticalAlign=top;align=left;spacingLeft=30;fontColor=#FFFFFF;dashed=0;" parent="1" vertex="1">
                    <mxGeometry x="155" y="300" width="395" height="330" as="geometry"/>
                </mxCell>
                <mxCell id="55" value="" style="rounded=1;arcSize=10;dashed=1;strokeColor=#330000;fillColor=#CC0000;gradientColor=none;dashPattern=8 4;strokeWidth=1;labelBackgroundColor=default;fontColor=#FFFFFF;opacity=10;" parent="2" vertex="1">
                    <mxGeometry x="-70" y="-70" width="540" height="420" as="geometry"/>
                </mxCell>
                <mxCell id="8" value="" style="rounded=0;whiteSpace=wrap;html=1;fillColor=default;fontColor=#ffffff;strokeColor=#00A0FF;gradientColor=none;strokeWidth=2;" parent="2" vertex="1">
                    <mxGeometry x="30" y="40" width="350" height="160" as="geometry"/>
                </mxCell>
                <mxCell id="10" value="" style="shape=image;verticalLabelPosition=bottom;labelBackgroundColor=default;verticalAlign=top;aspect=fixed;imageAspect=0;image=data:image/svg+xml,PHN2ZyB4bWxucz0iaHR0cDovL3d3dy53My5vcmcvMjAwMC9zdmciIHZpZXdCb3g9IjAgMCAxMjggMTI4Ij48cGF0aCBmaWxsPSIjMDE5YmM2IiBkPSJtODYgMTE4LjRjMC0uMy4xLS42IDAtLjktLjItLjMtLjMtLjUtLjUtLjctLjUtLjYtMS0xLjEtMS42LTEuN2wtNS45LTYgNC42LTQuNyAyLjUtMi43Yy40LS40LjktMS4yLjktMS44di0uNGMwLS45LS40LTEuNC0xLjMtMS42bC4yLjFoLS43Yy0uNiAwLTIuMyAxLjYtMi43IDIuMS0xLjUgMS41LTIuNSAyLjktNC41IDQuNHYtMTEuOWMwLTEuMS0uNi0xLjYtMS43LTEuNmgtLjNjLTEuMSAwLTIgLjUtMiAxLjZ2MjUuOWMwIDEuMS45IDEuNSAyIDEuNWguM2MxLjEgMCAxLjctLjUgMS43LTEuNXYtNC42bDMgMi45Yy45LjkgMS44IDEuNSAyLjYgMi4zLjQuNCAxLjIuOSAxLjguOWguM2MxIDAgMS4zLS41IDEuNS0xLjNsLS4yLjF6bTM5LjEtMjAuNGgtLjRjLTIuMiAwLTQuMi42LTYgMS45LTMgMi4yLTQuNyA1LjEtNC43IDguOXY5LjhjMCAxLjEuNCAxLjQgMS41IDEuNGguM2MxLjEgMCAyLjItLjQgMi4yLTEuNHYtOS4yYzAtMiAuNC0zLjkgMS45LTUuNCAxLjItMS4yIDIuNy0yLjIgNC40LTIuMiAxLjMgMCAyLjgtLjMgMi44LTEuOSAwLTEuMi0uOS0xLjktMi0xLjl6bS0xNS40IDVjLTEuMS0xLjgtMi42LTMuMi00LjUtNC4xLTMuNS0xLjctNy4yLTEuOS0xMC42LjFsLS41LjNjLTEuNC44LTIuNiAxLjgtMy41IDMuMS0yLjYgMy44LTIuOSA4LjEtLjYgMTIuMWwuMi40YzEgMS43IDIuMyAzLjEgNCA0IDMuNiAyIDcuNSAyLjIgMTEuMS4ybC4zLS4yYzEtLjYgMS4yLTEuNi43LTIuNi0uMi0uNC0uNi0uNy0xLS45aC0uMmMtLjctLjEtMi42LjctMy4zIDEtMS40LjItMyAuMy00LjQtLjJsNy42LTYuNmMxLjEtMSAyLjMtMi4xIDMuNS0zIDEtLjggMi0xLjkgMS4yLTMuM3ptLTYuOSAzLjYtOC41IDcuM2MtLjMtLjMtLjUtLjctLjctMS0uNi0xLTEtMi4yLTEtMy40LS4xLTMgMS01LjUgMy43LTcgMi0xLjIgNC4yLTEuNCA2LjQtLjYgMS4xLjQgMi40IDEuMSAzLjEgMi4xLTEgLjktMi4xIDEuNy0zIDIuNnptLTgwLjgtMTUuNmgtLjNjLTEuMSAwLTEuNy40LTEuNyAxLjV2OC4xYy0yLTEuOC00LjQtMi41LTcuMi0yLjVoLS44Yy0xLjkgMC0zLjcuMy01LjQgMS4zLTMuNiAyLjEtNS42IDUuMi01LjYgOS40di44YzAgMS45LjUgMy41IDEuNSA1LjIgMi4xIDMuNiA1LjQgNS40IDkuNSA1LjRoLjhjMS45IDAgMy45LS4zIDUuNS0xLjIgMy42LTIuMSA1LjctNS4yIDUuNy05LjN2LTE3YzAtMS4zLS45LTEuNy0yLTEuN3ptLTMuMSAyMS44Yy0xLjUgMi41LTMuNyAzLjktNi42IDMuOS0xLjIgMC0yLjQtLjMtMy40LS45LTIuNi0xLjQtNC4xLTMuNy00LjEtNi43IDAtMS4xLjItMi4xLjctMy4xIDEuNC0yLjkgMy43LTQuNSA2LjktNC41IDEuNiAwIDMgLjUgNC4yIDEuNCAyLjEgMS41IDMuMyAzLjUgMy4zIDYuMS4xIDEuNC0uMyAyLjYtMSAzLjh6bTE4LjctMTQuOGgtLjZjLTEuOSAwLTMuOC4zLTUuNCAxLjMtMy42IDIuMS01LjYgNS4yLTUuNiA5LjR2LjhjMCAxLjkuNSAzLjUgMS41IDUuMiAyLjEgMy42IDUuNCA1LjQgOS42IDUuNGguOGMxLjkgMCAzLjgtLjMgNS41LTEuMiAzLjYtMi4xIDUuNy01LjIgNS43LTkuM3YtLjhjMC0xLjgtLjYtMy4zLTEuNC00LjgtMi4yLTQtNS43LTYtMTAuMS02em02LjQgMTQuOGMtMS41IDIuNC0zLjYgMy45LTYuNSAzLjktMS4zIDAtMi42LS4zLTMuOC0xLTIuNS0xLjUtMy45LTMuNi0zLjktNi41IDAtMS4xLjItMi4xLjctMy4xIDEuNC0yLjkgMy43LTQuNSA2LjktNC41IDEuNSAwIDIuOC40IDQgMS4yIDIuMiAxLjUgMy41IDMuNiAzLjUgNi4zLjEgMS4yLS4yIDIuNS0uOSAzLjd6bTI0LjUtMTMuNC0uMS4xYy0xLjctMS4xLTMuNi0xLjUtNS42LTEuNWgtLjhjLTEuOSAwLTMuOC4zLTUuNCAxLjMtMy42IDIuMS01LjYgNS4yLTUuNiA5LjN2LjhjMCAxIC4yIDEuOS40IDIuOSAxLjYgNS41IDUuOSA4LjYgMTEuNyA4LjIgMS42LS4xIDUuOS0uNiA1LjktM3YtLjRjMC0uOS0uNy0xLjctMS41LTEuOWwtLjEtLjJoLS43bC0uMi4zYy0uOS40LTIuNCAxLjItMy40IDEuMi0xLjIgMC0yLjUgMC0zLjYtLjYtMi45LTEuNC00LjYtMy43LTQuNi02LjkgMC0xLjEuMi0yLjEuNy0zLjEgMS40LTIuOCAzLjctNC42IDYuOS00LjUuNiAwIDEuNy4zIDIuMy42LjUuMiAxLjggMSAyLjQgMWguMmwuMS0uMmMuOS0uMiAxLjYtLjkgMS42LTEuOHYtLjRjMC0uNC0uMi0uNy0uNC0xem0tNjIuNy0zMS4yLjEuMmM3LjkgMTMuNCAyMS43IDE5IDM2LjggMTkgMjkuMiAwIDUzLjMtMTMuMSA2NC4zLTQwLjYgNy40LjQgMTUtMS44IDE4LjYtOC45bC45LTEuOC0xLjgtMWMtNC4zLTIuNS0xMC0yLjgtMTQuOC0xLjQtLjYtNS4yLTQtOS43LTgtMTIuOWwtMS42LTEuMy0xLjMgMS42Yy0yLjcgMy4xLTMuNSA4LjMtMy4xIDEyLjMuMyAyLjkgMS4yIDUuOSAzIDguMy0xLjQuOC0yLjkgMS45LTQuMyAyLjQtMi44IDEtNS45IDItOC45IDJoLTYuN3YtMTQuMWgtMTN2LTI1aC0xNXYxMmgtMjV2MTNoLTEzdjE0aC0xMS4ybC0uMiAxLjVjLS41IDYuNC4zIDEyLjYgMyAxOC41bDEuMiAyLjJ6bTYwLjItMzMuMmgxMXYxMWgtMTF6bS0xMy0yNmgxMXYxMWgtMTF6bTAgMTNoMTF2MTFoLTExem0wIDEzaDExdjExaC0xMXptLTEzLTEzaDExdjExaC0xMXptMCAxM2gxMXYxMWgtMTF6bTEuMSAzMS4yYzAgMS43LTEuNCAzLjEtMy4xIDMuMXMtMy4xLTEuNC0zLjEtMy4xIDEuNC0zLjEgMy4xLTMuMWMxLjcuMSAzLjEgMS40IDMuMSAzLjF6bS0xMy4xLTQ0LjJoMTB2MTFoLTEwem0wIDEzaDEwdjExaC0xMHptLTEzIDBoMTF2MTFoLTExem0yLjQgMzhjMS42IDAgMy4yIDAgNC43LS4xIDMuOS0uMiA3LjMtLjcgMTAuMS0xLjUgMi4zIDUuMyA2LjUgMTAuMiAxNCAxMy44bC0zLjUuMWMtMTUuOC0uMS0yNC4zLTUuNC0zMS4zLTEyLjQgMi4xLjEgNC4xLjEgNiAuMXptMjAuNi00LjZjMS4yIDAgMi4yLTEgMi4yLTIuMiAwLS4zLS4xLS42LS4yLS44LS4yLjMtLjQuNS0uOC41LS41IDAtLjktLjQtLjktLjkgMC0uMy4yLS42LjQtLjgtLjEtLjEtLjQtLjItLjctLjItMS4yIDAtMi4yIDEtMi4yIDIuMi4xIDEuMiAxIDIuMiAyLjIgMi4yeiIvPjwvc3ZnPg==;" parent="2" vertex="1">
                    <mxGeometry x="40" y="40" width="40" height="40" as="geometry"/>
                </mxCell>
                <mxCell id="12" value="" style="group;fillColor=default;container=0;" parent="2" vertex="1" connectable="0">
                    <mxGeometry x="185" y="50" width="185.49" height="90" as="geometry"/>
                </mxCell>
                <mxCell id="31" style="edgeStyle=none;html=1;fontColor=#FFFFFF;" parent="2" source="26" target="28" edge="1">
                    <mxGeometry relative="1" as="geometry"/>
                </mxCell>
                <mxCell id="26" value="port 22" style="fontStyle=0;labelPosition=right;verticalLabelPosition=middle;align=left;verticalAlign=middle;spacingLeft=2;rounded=0;labelBackgroundColor=default;strokeColor=#000000;strokeWidth=1;fontColor=#FFFFFF;fillColor=default;gradientColor=none;" parent="2" vertex="1">
                    <mxGeometry x="269.51" y="320" width="30" height="40" as="geometry"/>
                </mxCell>
                <mxCell id="33" style="edgeStyle=none;html=1;entryX=0.5;entryY=1;entryDx=0;entryDy=0;fontColor=#FFFFFF;" parent="2" source="28" target="11" edge="1">
                    <mxGeometry relative="1" as="geometry"/>
                </mxCell>
                <mxCell id="34" style="edgeStyle=none;html=1;entryX=0.5;entryY=1;entryDx=0;entryDy=0;fontColor=#FFFFFF;" parent="2" source="28" target="5" edge="1">
                    <mxGeometry relative="1" as="geometry">
                        <Array as="points">
                            <mxPoint x="100" y="250"/>
                        </Array>
                    </mxGeometry>
                </mxCell>
                <mxCell id="28" value="Github Action" style="shape=image;verticalLabelPosition=bottom;labelBackgroundColor=none;verticalAlign=top;aspect=fixed;imageAspect=0;image=data:image/png,iVBORw0KGgoAAAANSUhEUgAAAZEAAAGRCAYAAACkIY5XAAAmtElEQVR42u2dzZXjOJaF04Q2QSaUCTIhTJAJWnbXZrTLytrQBJrAZWX3hibQBJpAEzhBAspQRigUkvge8B7w3XNwpme6uicEXuDi/X/7BgAAAAB57Jr5X7vv8373Y355/Z+n3V9z87r6izXfuaaL/0y3/neFtd/9Pf/BTgMAgHfBeL3MXy/1w4VQTA+IhMQaLwRmvwgYXwUAACyLxo/5uF7c6QXjEWFpV3H7Pu/4agAAkFM4FrfUcimHy3l2uIbVUsIFBgAAyYVjcioct6wUBAUAAMSFY3FVlSkcnwvK4pojjgIAABvEIwTGh0qE47O1xFD2sAEAAO4RjpCGe6rI6rh39YuowhAAAEA8trm6EBMAAEA8EBMAANgiIKGuA/HY7ubawyYAQD3isVRw+63tsLo6ChgBAOW7rkJFOZe+zpoW6w6mAQBKtD4OuK4SVsJTtAgAKMj66LnYM6zv8wkGAgD8CkhoUYL1kdsqIVYCAHAnIKEFu7+Ywu/zRa6twWms5AVWAgDsi8frq9f4RdvHViJhzseG9Nj1t4b/jkOsdemMZ501MBQAYFlA9sbcV2F+x1KPkjDQ/GuCYhCW3pyI0tgRAGBQQA5mYgCJReOu/QnxocaIpTKSvQUAsHNB5o9/BOFwEkCOre1zC8pEpTsAwIKAtBmD4I33zKNooXQZ04APsBgAkP7yy1d9vjYeLM2vHxMSmiwxJYQEAJBBQIYc4lHF3uboaoyQAAAKFZAqW55nEROEBABQkIDQTPDbLzdXi5AAAPxfaOliIC21DB/EZJ9MwBESAICCgLSJXFd7dvummJwQEgCANwFJUQfSYH3c+T1CnYm+VUJBIgBA4OV7oDlgteI+ISQAgC0CslevNMf62PaN9Nvt840AAE8JyE75cmrZZdFvpene6thlAMCjrpKBoK2j76XdQYApiQCABwSkIf7h9tu1ikKyZ4cBALcvoeBjJ0jr+xse1b4h8REAwBcukQkBKeBb6mXVER8BAHzqCukREISEmBYAwIoLBAEpU0gm73NcAACSF42OGwsBsSMkJ9xaAAC9S0YjNZQsLGvfuOUbAwA0Xqn7Enzma8FdcMl1V2I74/p/W17kFaepKsS8RrK1AOCFOnquRI8+/+EJn/6ptgtQZR4MRYgAVCwg8sH0IbEFNQgEiKu6BGMH4ElYSHacJgBqExD5YHqyQjSFQPFQk5tLIWOLPmgAVCci0hdxoiCr8nCsamaaiO8jmXgAYIVsuXwLEJC3YHEFWUeRA5LxsJ6TBQBWiNkMnUTTFX+rgyjd1y+emUeDRgCwQixeHAmGY93qOnws3K3VEBsBAOSyQpJcGgppyI8H3gv1+Ss8KnacMgDKfnlOnrKxEsx4f6gmosTAu/AeY40AULAVchDMxkri5jFghXyMARXo+xesZmfmCAAFWyFS1cpjkr83FMbNRldX0mUpGncqPI4EQJ0CInkhJ+qNpdR9lsD754+MztMjAwCQ9oJovV0QSkOyNFZfQkB5bWJJui8A4JMLefLWoVdpVK9q4J3HBgF2AMoTkB/zi0c3hSsBKSTwLuj2nDh5AODKyjonxKmI/HqJew28i7kRGVoFAK6snKmbIrGK0O5+yhh4d3eRClquuLQAwJWVtsmitIis/z2hKrsj8P7Q3o+4tAAAkq6sXYa/XbSzbKyFGLNZJY4C72Lp1bi0AHAvIhKX5pDpbxdvTx6tkoY+XF+KyM6rBQsAkLoIpDJtMhXUac64iHszZBQT8wOwhPaHwkMA3IqI1Az1TP78FIOSMgfeTQ/A8s4fAMD2S7jz6spKJSIXrpsuax8ugxetmEsrcWo4AEDuEp48N9NLPbI1ZrJN9OESd2mR6guAOwGRiodkDALnmPttIPDeWwq8C2VpDZxIALyJiMzskKxB0RwicrF/+6yBdyMDsKRaxHMiAfDnymq8uyFyisi7l/hUcx8uuvoCUKeI9J7jIVZEJArJLnNb+qwDsErgEgDg8YM/eY6HWBKRdy7CKWPF+yGTS+tE0SEANQlICA6792NbE5GLvW1rskqE+q/1nEwAvIiITDA0+6G3/Bsy9+EaUgqJUL0IlesAuBERmZdj9tx+D0KYcQ58WiEhQwuAqiyRk0SKKSJy598ZanJyBN7bhN+i9x5jAwDcf+CbElIyvbnksvThStR7S6QtDGm+ALgRkR4RyRPXyTAAa0zh1hKxbpktAkA9ImLkd7hNDkgaeE9QgyHS0dfRUC4AEBFEJHuGWcI+XOqZTyIZf4gIAG5EpIjZ2KXUJiQZgKUctEZEAEBE/F2+hRW4qQbelS9oodojWsIDgIjwOzZexlp9uFR/q1AXBKrWAUBE+B1CVon0AKyR7wEA4LBXdGlJB975HgAADnuFl5ZQmxpEBADAYa/t0pJsL8/3AABw2Cu5tBT6bU18DwAAh73wS2uNg+h0/tXNzpJpB4+IAFCJiAyIiMpFrNkKpUnwtzPdEIBKRGSi7Ykhiyq84jvP3XypWAegLhGhd5aV6Yxp2sNPCX7HCyICACLyyIHfISIb/vYU/bISuolKGXQGALjv8i1igJDjeSJNIvFYrZAUgi8kIntOJwAeRETmwB8QkadcPmNCAUn2ui9l0BkAoCLXg5sZ63pNFc1k0Ym45hJMYAQAyFxqEumYHSJyt2BPGQRkShm38lBRDwCQOvAhqGu+K6xnEYlCPWQQjyAgykOoFPg0cDIB8CQkEpdVZveDRRGJgfM2k3isl3FKAYmCeaBaHYD6RGT0Hgi1dnFJNkt8NpU3h7CLZJuR3guAOxHpvB98KyKSMXD+Zn1kFHQRt52BbD8AwGMX38m7C8LC36/ULPGR4HleIZcZizundsEBALZffnvvGTU5RUS5WeJdf7uJrgFOBmYBAKy+IJUb+1kTkbhvXUbxGHPu+ZVv0BJUB6BWIZF5STcZ//6kl1eiZonmAufqHCKoDoBbEWk914ukEhGFKYPm03Yf2JeZdicA1CoiMvn92YKi2iKSoVnix8D5q/Vj+BHSEA8BoGYRkYqLZHJpaYpIlmaJ79rKWO8lJbQ/xEMAcO7SGry6tDQusCRTBr8KnDtw70hl91m2tAAACV0SOTKGpEUke+B8qTlx0slWrLUL9SEAOBcRqeBohq6+UiKSuVliqPlwdJkKukFHTiAAZVgjo9BLeudMRIbsgXOH7T6ixTZ7Tg8HAFh0aSW+FDJe/hKr9TqESezRgSsLAFxaH17WCS9Gp+Ixeq6LEEsLx5UFAC6t3NXHmVNwq6zM9sgTAECKy0HOz53MGsmciuuuWaIhK2QuYT8AAJcXhFzGTbJXpqDwaVacvxTDETnLjwJDAAp1abWCWUfqL81YGGhVQBqvgXN1K6QgYQUA/H5R7CWzjxIJX29MPIbSGgpGK3UioA4ASHspJ7hMRV/IBTdL3LjHJ0ErhDYnABRujUheykMl1khXaqBYMP07eQo4ACCfNTJ6CrILX3RupwwqcWEgxRkAkNdFlKAyOYNbqyn9VS3qxsIKAQBrxIFbq6VZolHrDisEAKwRD321hF/PVQTOP+xhyMYasEIAAFtf9rIB60TxgziVcBINnFd0CYpbdFghAFRrjex38q3Pdwlf023NzRKNWKDUhQBQuTXSiRfjpez0G6ra2wctk87jnI/Ne6WR5UZ1OgDVWyM7hZGxXabfso8xkza66s6rW//vixusUt+90nemRxYAQK3RYcvOGvm+8oF0OvUCAN5dNBqXDC0wShaQE7sLAHi7bLSqwiuMPRh7HGi0jBnYWQDAxwtHqwYDIcklIDrFmcxOBwDcuHgGhMT5NwwuLJ2mlbgoAQBfWCMaWTz40dMKyKDVEoYdBgB8fRGFinCt3lRkbek+AAa1tjC0NgEA3H0hLV1sNZscciHJfq+QGDGpfbPKKvsBADJC0quOmSVAK2WB6LbJJw4CAHjqcgr+9VF15CwB963fR7s9Pu5HAIBhN0m8qHBvPfVdBuXvQj0IAEDEXbJPMooWv/u93+OU4HsMCDsAQPLiOjCWtgrrI2lLfwAAQkKsRHvfl9hHGusj7D0JDwCAAoQkpAJX7uKK+z0hIAAAhGRL4L0y90rc4zHhHiMgAICihSSISeEXXQbxQEAAAFUJSXBzFTSWdY15hMFgY4a9REAAAFUKyTkt+OTV1RVTp9uM+zeQhQUAyH8ZpilI/PpCXF7zxi/FuFdNJquDOhAAgOnLcch8MV6+sE8WMruiq+olWhyjkf2hlQkAwKCQhF5OnZGL8n2q8Gm9zJUtlVVMg4uvMSSqNFMEADgSk3SFcduEZRG8IC7HNT5xXp+4edZ5Hed/JgjSKf7W3qRgfCzg3MNOAIAXIdkbiJOwCpnfslp4Z+EOrsE+ruku9+blo2GxFG88FkBF9xS8wr3FKs99dRFHapRn2swxTtWu1iipzuXfR/DKrVVywCrJkFzgiLwxlnQy4BY8H/4XTm4hlga8KkZIdlglidbroXHDiXDAR7NxpNByZ88JdnbXwKuCP3AwJ0cue7UstJ0TDvTO9nZcXRP4u+EVvDLim/SRweWJiObN5Ex9wTRekQ2V/vAKXtlxcbWIwKa03ROHPNtigBq8gldmgl/+zNDs4mGdaDHNe+RbAHgFr1KSA8vEv3jsKnwUjARK4RW8sufmIi3YWfAttrSv+bt1vB7hFbyyFIDPN2fDRraVk7zySl+Jn1uM1APAK3hl1tU1VWC+upqRElMrsRqvBEg5ufAKXtklV0mCMq4ZGQ7bI8QWEhxs5rbAK3jlWlAahy6v3nNfndgXDTcDI4jhFbwqzH8acsdbg63ZeyuDsoT81AOH+OHMugOnFF7BK39xlPRm5ptgHEp7KRgZhey5rxkHHl7BqwpFZLiYM9D8GkYVLYtaZggYPuj9jTVx4OEVvAJ5RYSRslYOen85/OcJV+c+9mzrsv8WDjy8gldVWSIdBz3L4QhZa0q58XGq3TGbH77yAw+v4FVNIjJVu4chW2ZMGijMMGsh2wyKSg88vIJXtYnIXGMqXTzoQ8IsExN9wRLPpaguTRNewas6RaTCKtFEkyjNNpWM/OmT7EFFhWPwCl7VKiJjZXuXYmiYi7kJsfZI23c/wCt4Ba/KFpG5lpbMCeprBm+mdnTBaLfiaOAVvIJXZZO2rcRfPSkG/E6u90e7KWChXVrhFbxCRN7IusNf/bSPel/QhTjgx4ZX8AoRwRr5+BrScTMUKL6KUzg7eAWv4FXJPtgSiavnbii6ZXUsKsP9AK/gFSJStzWiFNyrYqRnzLKRr6ouYO/gFbxCRCooPowtuMX7EVXGtQPBYngFrxCRKsmsUPhU5dQ1BReE62AovIJXiEgF3X0V9qhqc1khKNrCK3gFr0oVkQL60wi/FunXE/Z0qD2RA17BK0SkAhNboaL/AOtUMpIaeAVq51XJIuLX5SBrImMeX+6tbG2EKx82vIJXiEgF8RHhzBnSBq9fpk1t/IJX8AoRqcTsFu2mSgFTCvfDCK9ArbyqR0QcCYngpLUept3k4EGQW3t4BWrkVV0i4kBIRP2qhWR4xDGmh/iS7uMo1ZNEVpBgplILr+BVbbyqU0SMC4lg4NM9+aJr4Kv96LccekEeTsatEHgFrxCRGrK2xPypzl+LywF+wP0ybXkYiL0aDccJ4BW8QkQqqCMRdDm0BRz0KZX/uPR9h1fwChHRrmw3ovRi6YGOg3FPH/SNaadCQWeT2TTwCl4hImlW9hbWQq0ThkoP+qZ4l1j6q8EWIPAKXiEiKa2STK2YY7Cv2gIlkYO+If1UrBDP2P7DK3iFiORZY+oMLjH/qceGgHIHfV2ZX+ym/NfwCl4hIvnF5JTCzSVk9g61H/RNh11mNsRo7JzBK3iFiJiJmSgG4EXSAZ1NRdM46JsOe/h7tv8NljL+4BW8QkTMCspRMtglQnpH2TNaB33rq7m07wCv4BUi4mO9tUxYfNDLb3t0ZXwpFXTQN89hWB8IBQVB4RW8QkS+MLMVRlN6XQMHfXsAWLTTLbyCV5K8cuZWdCMiUeUREqHsjfW7LK66hfRh7aV8seoHXWAaXGEWMrwqi1cdyqEkIgjJ9ldKzCC5VV3bbjn0CQ76IMTLHcIBr4zyihb8miIS/zsP1R72JzPHYjHavXns0zPJBCkOumTmCuIBr4zyakA5lEUkEbGsvhj3ygf9qQPv7aCLZdLAK3ilwCuUI4GIXJC457CrBfvuOvAeD3o87D0CAq8s8grlSCQi7/yxVbwqn3wtbuszduPAez3oiAi8sswrlCOxiFwEtHoO+1WBnTUOvOeDjojAK8u8QjkyiMi7oPvEYRfPZvvtwHs/6IgIvEJEEJGvTO2Gwy5+Ua4HvoSDjojAK0QEEbnn//euuLqSBw+BwkU5lXDQERF4hYggIs+IiX8314NZNM4ssiFlB1NEBF4hIojI4xklX1fWlnXY/RRmDqlbYCMe8Moqr1AOoyJyJQOkcWedPDiJMcaHJg46IgKv3PCKticeROQTQRkcHPaH90IoHbOsg04DRnhll1eIiDcRueLyeonVuL3B19ZTHT6NJhgMuaa4Vd1/DV5Z5xVz1j2LyKfCEoZKHX61uA7DZ/onVrYZzMYO/JBzDKjQPJHxSQ5oLHhVCq+YJ1KeiJjzw29pqW3jwA+550iLXLxPdr6FV/DKC68QEZsiMuQmWeYDn/2gi126T7Q1h1fwyhOvEBGbItJZ8JlmOvA2DvoS8yosDRNewStEpBYREfLFC108bW0HPf7uprQMGngFrxCRekRkb8nkTXTgzRz0+Jslik0beAWvSucVImLXpTVbIpvygbd10KUuW4PBT3gFrxCRekREIiVzEv6b2tIPuujvNPa74BW8QkRqEhGpSt8HW1UkPvD2Drpcq44BXsGrWniFiFjck9BmZbZIOqEDP5h8qcsEn83yEV7BK0Skos0V6yT8YPfVBAfeZMsG0YaBhvP44RW8QkTqERGpeQy90t/XlnLQRV+LQmmw8ApeeeIVImJzX3ZifmKljI4HD7zdgy75WjTORXgFrxCRijZYsPW82ismVuGON8ea/piPlbzOFy7u4BW8qpFXiIjNvTkIklB1jy7a43frWv61g5x2wWCzm2pieAWvEJFaRER6OhyBOc1XuZtCMHgFrxCRivyFgoE5symQheztCK9A7bxCROy+GiWreZmK9k1h/K1wAR68glceeYWI2DWNW4gpyrmd8FjjEV7BK3iFiNREzmr92PEFPnB5wit4hYhUlUMt7GcNKZKVHXiVg+78tQiv4BUiUouISGfUVHjgVTrGKrT/gFfwyjuvEBG7e3UQJ2sFBz5elL3C3vXwCl7BK0TE26un58BndzWEPSuoihhewStEpJ792im4H4oM5MWq4VFlr4y33IBX8AoRQUQ+3zOp4UKf5PuXUDgWXTST0h718ApewStEBPfDrQpkp26I6GbQnN1dtLsBXsErRKSWfdPJqnG9r3d0fqWPEbyCV4gIIvLONzsrr9E6waM/v0+wFw28glfwChEpbf8OCUi++mut5a7HQ96m+v3wCl7BK0SkVD92KsIHv3bmbJvImbS/ucIutfAKXiEiHPhZNRC4TG5LFChdX4che2hI/jsrDnjCK3iFiNR14FMfhDf/9nLZLAFIwZfVyo3Q2ynX75oYuASv4BUiUs9e6lXRPnP4wyjTxbceDu3+2kWwBnGXf+9tDGpr5Ddw0OEVvEJEOPAsDjq8gleICCLiwZfNQYdXLHiFiHDgq15ky8AreIWIgHf7e+AQ37U6Djq8gleICLi2x6ECeeJAwx94Ba8QET7Wc/usN0DHt5+aCXLwCl4hIojIA/sdCqt4PeJmgFfwChFBRJ7e813Fr8eJjqnwCl4hIoiIzN4fKns9NrwS4RW8QkQQEWmfdqjoLfnQ9/QpglfwChFBRPRdEW2Bh3zP14VX8AoRQUR4QT4W3OSQwyt4hYggItkP/cFRv6Rx9U3jXoBX8AoRQURMuiQa9TnTz82eaMmKgVfwChFBRLx8r6VKOdQE5ErlHNaLhwMOr+AVQEQK+X7B190puCimGMQ8SQ8mAvAKXiEiiIjlV2UYCHSMA4TOQ4H6q+v8z4S1J3gJ4BVARAAAACAiAAAAEBEAAACICCICAAAAEQEAAICIAAAAQEQAAAAgIgAAABARRAQAAAAiAgAAABEBAACAiAAAAEBEEBEAAACICAAAAEQEAAAAIgIAAAARARa+KcODgAL+/N/8x7//mff/+Tkf//xnPi3r3z/n9vV/76+t8z+z/nOv/7llsYuICCJi8fsxxhQIY7nwl8v/VQy61zW8rllwTWeR+c9/55f/6+EVIoKIpLUyFgsjWBFzhrUIVbOICl+jLCtjsTCiFTFnWItQNYuo8DUQESD/jXbrxf3XPGYSjluWSouguLU2duvF/XMeMwnHp5bK6iZDUBARsOG7NPO/Xvf1oOCi0lpjjKns+Hp2sbiO/vxnPii4qLTWGGMq8KpoEflr7thJUfE4xVf+7HS1BOdNiscpxiNmj2uxTgjOW720tl8aPTsp4rJqHQvHVV4gJvldVjGDai5o9YiJtQtMwDfOLlZtedwjJrgjsDw0xAReGRGR7QFb0j+fsT4OhYvH+9XAE33EmEfJ4vF+NaQJ5xeRXiC4jnn5mOuqr0g8fs/oIptLzXWVMUU3e0YX2Vx5RWS7L/7HfGQn79jrUOMxVSogvyVjYJXIIdZ4TJUKyOXqsEryvIxPZGgliH3Ua318bpVgwW6OfVRsfXxeZ0LgPbmI7AmuK+7vUmWO9UGdkXTsI1SZY318spbEAliS9pW8/TJ4vSzZzQ8CfUAocG+JC0gIniMWuLdMxUVG4iIGY011rQEh+RoF1n2o9+VCSPxceAM7iYBsbp+CRYuAaLRP+R+88uF2qbyoLLoGB8RgY8AdIfkNMYA+IAbbAu4Iia6I7EQugIpdWoYEZFxjDKEh4uE8aOqaq+jXv7fMC3kbXjUgJAjItdf8EmOIg6YO50FT11xF539vqd24GF41ICTERe66wCrevyGjaLTSg6MuBl4NCEk+ZLx8x3NLdsmYwsXAqwEhKe8SbIRcWntiIElmeTSpLtnVUg2FkkOGWpJqXaQZYiBLynCT6pKNVfbHDIIy0XdL46JYXrJCDfcQEMUMpu/zIbPrc5/8N1eYtZVYQIbFRZX19y4usMS/mawtnQtxIsD+0IWaqg7EXFv1xO3rq3qYJKwDMddWPXH7esZYGH5Vt8XvVahE1493GG9YmLChZFOFgIRKdP0gufGGhQkbSjbc/FYvxoKDojETa6IdyAd3qO4c+MI7AMdMrIl2IG9YxE59DjwdgMWtkREXxJd71KvGAJwKcBTXlkD7kxem7st78JqVtIirsouLQLvwi/Io+Jresz8PzicvIIisPHCryMdJzFJSm09eQhBZeeAW8RGjrpqxpMya6P+flNxXhwJdo6OSW6uootbo/5+U3FdF8SrGjLTcW/T/E3TXtAREk7mxii2qU6ziL8qtpeTGKraoTrGKH7eW8It7xq31wUWDgDwnJD1urZsuGgTkOSHpcWvVY424dmspZWNV1dZj7ecl7wLcF3ARTgjIJiuuE48hMRnRqDXieISu0AjhqvtCKbm2XPdqiz2kEBB7rq1qewBat0ZcBkRVgumVNhZUERKnCQkawfRaGwtqCElpCQklWSPuCsbEhfR73eRUEGWXr0bpuofaLz0FUcYawZUj9nIWrQOBUb+aOFYrzPHlLFoHAqtCE0eE2e5FOtYoJMICygxxvb119WoUjoXQjVZvb7FGxA68XJt4N0IinpHFgKVrrsKhNjepdEYWA5Y+QjQ+Ql8t0QPf1SQkonUhzpopJttj2U7ILvL7JetCvDVTTLbHsp2QqRsx+zI3LiSCr2RM4tv73AiK9a6iVzK8ur3PjWDdyI4dte3WMhccFc1K+4E5nOxxYtziixlEuFmcuQ2x+ORfjm3pg4cEX8eYwveJ9qkGq0/wdQyv7nMdnrD67L4cB0Uh6XO7JcSy0b7TPiG5NWI4gUGq+yxtOTJYIyQwCB/6EBCdVIcPZXIDCQZ7B5iSwRox6tISDPbCqwzWCC4tjUOvGR+56LeV2ioRGzr1nUKlTNaIyUtWaugUBXDZrBHE2/SF+/XsiGSvAKG25RPseGrvZeJtBos6hdqWw6snINVihqJO6wf/nnbyCV73DOLK6tLal5oRJ+TKglfPiIhUOxQy4ooQElUxEbvEqE7fwqWxNBGXusQI7m4S8RERt3/4h4RCchaTk2TMRCi4SzrgNh41paVWCwV34dU2EWlIrbZ++PVTf78KwB+2+sKFWrvQUXXLNxBK2DB2gXV06s38Df47v0hYg+xkGiHpMwnJm6AsAf8nXEoiIkiFuoQ1UpRLUaTVCf54ie+AS9HRJdBmFpK3zK5QvHhaX7hfFP+VmhnkkD99SWJOZpCZ79Aj5giJbEwlXFaXy1w8JPZbOkaXSB/X8q+PKRvDLfUJMVXy/Df0i69f42UmEptSTAtfLvQ1WP56oax78Mm6+GbEQwxAIjZF0WFqIZFsp+5jdcIvpyZ3xkj0JX+V2dJLCpoQb8RjCLHqvJOcnnfn6rhNZB5CxKZ8CsleuUWKnSX0+o1VtkPu6XYPZrRMUlaJUKp1b+0C4vWbF0Kp1mRoZRKSXcbMrZQicsjou7VwaU5SFoklEckpILQ6EX8YISLOxeRUuIjsc15YUpdNjMNMOQ+ZlTRf4Sl5dO31LyKk+Rpxb42IyKckH3MHYLcWZkm4tSQSHTJahYiIXRHpEZEShCTUkzTFicjG9F6JV6/EBb61RYSED9+CiIhOIiS9FxEBCmISZnf0pYiIAMEl2oUfS/AbWxARqSpnLi1EBOi7uA4luLgE4iHZ89hjZhgi8k10vCqXFiICkri4QuB9QkTyupIQEUQEEeF7ICYORUQij10iCLt1EpxEQRbuLC4tRATU5+bamJ0lMMpzkgjCbq3Klkg1JrBOdhYiAiTFZB97cU2lp/huGeUp1ZJho0UkkmYs8a2tXDqIiCkRmRARXF0Hobkf8kugc+wGa2SSTAV92hoR6nIq8D0Gib/DQrEhnWNFRWTr9xjYxZIEJQwwas24vIR6Z8WLa8rRt+qdmD06B0OkGWRsk0PbE3pniULIPUnbk4JdXrtopbQZ+3SJdfiMQnJP0d+oNSgnCkl3l4gJ9ncSasAo2vk2p5DQOVZMRCQaMNJRuSphWYoZwzCqU6yQP88N0bJcxE3deHldswiGVI354uHrrlhHi8g10nNNrM4TydgKHheKzFlinghQFp3CZns7/g6dQHzqqPX3XQ6lWv7nrbX886T52oDQA+DIToJbl9dkIUOL71DWd5DICCJDi+8AfFxevUU3SnUuyMJm3UukCeNG2ejKEsqyoxkmuH2Bycw7wX+95Rv8mI8WZ91vusBk2qfAq21CLtHclFn34MsL7EUo1XfHbj5tDQ6WsuRELjCh9inSCQyVichAlhzQv8DCnJPZclC3cEtwV+L+C3VGJqj7JATb17D/INlLGNfDcyIiMz75b526mdwvYVxaz0GqG7NWPRYoT0QaK320Ktz7sbR4yIWINPTRyrb3I/EQkO4ik4qL/IX/lH2/uMik4iL45dl34OJFPBFgT77nvZUmmIov4okAe/I972mCCXJcaC3WSML9lumVtazJ8u/c0uafV/ET+y3TK2vtDcduglyuFayRlFaIcdGWnJSINZLOCkG0wbMXm1STRlpH37ZCDpaGgiW42EYhIYFXNyDZdZlkBvCsiDSWhlUVucehLkdqWqWL7BmpLC389J9DYMw0WVlA5IW8E2wRP1rq5VSoULsoBBOe2z7Sy0lZqCkwBBsvudbiwKoi9lYy7rRYM45EWirAjr/+ioAIxp2kR06DOq2RvfD43AO7Ku7GWlbj6fcLZg2dO/zCK3k3lti4Z4A10ou+mP+mdYL4+GKHGXBi9Qvn8cS05JBqLUMGHDBujVQeHxF2Ebp1E0pbI7XHRyRdhLgJgXVrZG3QWKOQCM0KcRsLUbZG1gaNNQqJ0KwQYiFA1RrZCV9+1dWPiNaDFDJFUjhTq8r6Ecl6EKZIAm1rpFEQkq4Gi0RFQApxCwqno55XV8NLWkNASJsGehehfEZRFa4tBRdWUQWcChlFVbi2FFxYFHCCJBfii8qFuAhJgT22FILovyy4oi5E2dqG34SkxAwj6SD6pQXHLQdSXIyd0sU4lTLIKlptg9o+FWi5LReY0sU4ldL7KVptg9Y+4cYC3t1aRQSLo7Wmtz+F9iFTdGsVESyO1pra/uDGAmkvSvnakY/uLWdFiVFcG+V9KbqCWKF25IN7y1tRYhTXRnlfqEwHWYTkpHxhrpemB9dNzL6atIW1Bl4tFoPyhblemh5cNzH7atIWVm4zkO/y1IuPvI+VnCyKSbTI+iR7UFFxpmJ85PdWKa+CZVFMokXWp9gD4iDAggtnSHCJmhKTGPfok/3uyvqNKQeQzYpJjHv0yX43/caAISEZE12oc3Qbtakzudaq/eDCS/lbq+18HIVkTHShhiyun3ObOpNrSUGOLryUv5XOx8CYkLy+lBPEBK5XbS9xE6WMpfV3hWLBIcNvq751/vJSThATuFq1vQazlTKW4u86JrS2EBCAkNzbj2u1FpZA94OWSrQ09tHa6LL/Fmav5BaS3/pxLdbCcvk+aqkslsbyn4nWRpf7tyAgACF5Vlw+X/b+XgTEopBcFZcby9zfi4AAhKSGhYB4ExIXCwEBvoQktI4fEIWHs8846F+4hnLFERyvCQEBPoUkZG31iANpvJKIWVs94kAaL6hFTPRbgXhfQ83jgp9FglYg3tdAISEoR0i0mxL6XfQs2iIk2k0J/S54BYqNk+DeOruvftA1VTBOgnsruq/oxgtqsEqOlVslHe4rFffWsXKrpMN9BbBKyl4j1gdWiUp1PdYHqFhM9sl7UeVJ3T1hfSQVk33qXlSZUndPWB8AfPs1j6NEMWkRj3yI8ziKE5OlUSTiAUC5YjKtac3f5x1fFDERDZr/nJvFZccXBeArMUk7r0My5nHE8rCLxPM6JDsKH7E8AHjOMskzw8P4bBOwDblmeFifbQJA2YKyNHYMgjJktzgW4SDTqgxX1//mP6Kg5O7JNS7CQaYVACkEZenLFVxeTQK311k0jvS3KhtrX67g8moSuL2CaPycj/S3AsCKpbIIS7BW2ot5Iff1rwr/bLf+5xfBWNKPiW9gqSwt6F+FZbFW4qXfPyAwQ/xnu2jtHBcXlff4xv8DeKmErJhZlPQAAAAASUVORK5CYIJ5N5bYuGeANdKLvpj/pnWC+PhihxlwYvUL5/HEtOSQai1DBhwwbo1UHh8RdhG6dRNKWyO1x0ckXYS4CYF1a2Rt0FijkAjNCnEbC1G2RtYGjTUKidCsEGIhQNUa2QlfftXVj4jWgxQyRVI4U6vK+hHJehCmSAJta6RREJKuBotERUAKcQsKp6OeV1fDS1pDQEibBnoXoXxGURWuLQUXVlEFnAoZRVW4thRcWBRwgiQX4ovKhbgISYE9thSC6L8suKIuRNnaht+EpMQMI+kg+qUFxy0HUlyMndLFOJUyyCpabYPaPhVouS0XmNLFOJXS+ylabYPWPuHGAt7dWkUEi6O1prc/hfYhU3RrFREsjtaa2v7gxg==;labelPosition=center;align=center;" parent="2" vertex="1">
                    <mxGeometry x="265" y="229.51000000000002" width="39.02" height="39.02" as="geometry"/>
                </mxCell>
                <mxCell id="5" value="Next JS" style="shape=image;verticalLabelPosition=top;labelBackgroundColor=default;verticalAlign=bottom;aspect=fixed;imageAspect=0;image=data:image/svg+xml,PHN2ZyB4bWxucz0iaHR0cDovL3d3dy53My5vcmcvMjAwMC9zdmciIHdpZHRoPSIxNSIgdmlld0JveD0iMCAwIDE1IDE1IiBoZWlnaHQ9IjE1IiBmaWxsPSJub25lIj48cGF0aCBmaWxsLXJ1bGU9ImV2ZW5vZGQiIGZpbGw9IiMwMDAiIGQ9Im0wIDcuNWMwLTQuMTQyMTQgMy4zNTc4Ni03LjUgNy41LTcuNSA0LjE0MjEgMCA3LjUgMy4zNTc4NiA3LjUgNy41IDAgMi41ODctMS4zMDk4IDQuODY4MS0zLjMwMjUgNi4yMTYzbC02Ljc5MDYzLTkuNTA2ODhjLS4xMjYzNC0uMTc2ODctLjM1MjQ3LS4yNTE4Ni0uNTU5NDYtLjE4NTUzcy0uMzQ3NDEuMjU4NzktLjM0NzQxLjQ3NjE1djcuNDk5OTZoMXYtNS45Mzk3M2w1LjgyOTkgOC4xNjE4M2MtMS4wMDMyOS40OTgtMi4xMzM5Ljc3NzktMy4zMjk5Ljc3NzktNC4xNDIxNCAwLTcuNS0zLjM1NzktNy41LTcuNXptMTAgMi41di02aDF2NnoiIGNsaXAtcnVsZT0iZXZlbm9kZCIvPjwvc3ZnPg==;imageBackground=#FFFFFF;labelPosition=center;align=center;" parent="2" vertex="1">
                    <mxGeometry x="80" y="120" width="40" height="40" as="geometry"/>
                </mxCell>
                <mxCell id="53" value="" style="endArrow=classic;startArrow=classic;html=1;fontColor=#FFFFFF;entryX=0;entryY=0.5;entryDx=0;entryDy=0;exitX=1;exitY=0.5;exitDx=0;exitDy=0;" parent="2" source="5" target="11" edge="1">
                    <mxGeometry width="50" height="50" relative="1" as="geometry">
                        <mxPoint x="-155" y="160" as="sourcePoint"/>
                        <mxPoint x="-105" y="110" as="targetPoint"/>
                        <Array as="points">
                            <mxPoint x="155" y="140"/>
                            <mxPoint x="155" y="95"/>
                        </Array>
                    </mxGeometry>
                </mxCell>
                <mxCell id="37" value="port 443" style="fontStyle=0;labelPosition=right;verticalLabelPosition=middle;align=left;verticalAlign=middle;spacingLeft=2;rounded=0;labelBackgroundColor=none;strokeColor=#000000;strokeWidth=1;fontColor=#FFFFFF;fillColor=default;gradientColor=none;" parent="2" vertex="1">
                    <mxGeometry x="320" y="-80" width="30" height="90" as="geometry"/>
                </mxCell>
                <mxCell id="42" value="" style="endArrow=classic;startArrow=classic;html=1;fontColor=#FFFFFF;entryX=0.5;entryY=1;entryDx=0;entryDy=0;exitX=0.75;exitY=0;exitDx=0;exitDy=0;" parent="2" source="11" target="37" edge="1">
                    <mxGeometry width="50" height="50" relative="1" as="geometry">
                        <mxPoint x="255.63250000000016" y="60" as="sourcePoint"/>
                        <mxPoint x="255" y="20" as="targetPoint"/>
                    </mxGeometry>
                </mxCell>
                <mxCell id="11" value="" style="rounded=0;whiteSpace=wrap;html=1;strokeColor=#33FF33;strokeWidth=2;fontColor=#FFFFFF;gradientColor=none;opacity=30;fillColor=#003300;" parent="2" vertex="1">
                    <mxGeometry x="195" y="50" width="175.49" height="90" as="geometry"/>
                </mxCell>
                <mxCell id="3" value="Nginx" style="shape=image;verticalLabelPosition=bottom;labelBackgroundColor=none;verticalAlign=top;aspect=fixed;imageAspect=0;image=data:image/svg+xml,PHN2ZyB4bWxucz0iaHR0cDovL3d3dy53My5vcmcvMjAwMC9zdmciIHZpZXdCb3g9IjAgMCAzMiAzMiI+PHBhdGggZmlsbD0iIzAxOTYzOSIgZD0ibTE1Ljk0OCAyaC4wNjVhMTAuNDE4IDEwLjQxOCAwIDAgMSAuOTcyLjUyOHE1LjQyOSAzLjEyMiAxMC44NTggNi4yNDZhLjc5Mi43OTIgMCAwIDEgLjQxNC43ODhjLS4wMDggNC4zODkgMCA4Ljc3Ny0uMDA1IDEzLjE2NGEuODEzLjgxMyAwIDAgMSAtLjM1Ni41MDdxLTUuNzczIDMuMzI0LTExLjU0NyA2LjY0NGEuNTg3LjU4NyAwIDAgMSAtLjY1Ny4wMzdxLTUuNzgtMy4zMTQtMTEuNTQ5LTYuNjRhLjcuNyAwIDAgMSAtLjQtLjY2NnEwLTYuNTgyIDAtMTMuMTYzYS42OTMuNjkzIDAgMCAxIC4zODctLjY3cTUuNDIyLTMuMTE4IDEwLjg0NC02LjI0Yy4zMjItLjE4NC42MzgtLjM3OS45NzQtLjUzNSIvPjxwYXRoIGZpbGw9IiNmZmYiIGQ9Im04Ljc2NyAxMC41MzhxMCA1LjQyOSAwIDEwLjg1OWExLjUwOSAxLjUwOSAwIDAgMCAuNDI3IDEuMDg3IDEuNjQ3IDEuNjQ3IDAgMCAwIDIuMDYuMjA2IDEuNTY0IDEuNTY0IDAgMCAwIC42ODUtMS4yOTNjMC0yLjYyLS4wMDUtNS4yNCAwLTcuODZxMy41ODMgNC4yOSA3LjE4MSA4LjU2OGEyLjgzMyAyLjgzMyAwIDAgMCAyLjYuNzgyIDEuNTYxIDEuNTYxIDAgMCAwIDEuMjUxLTEuMzcxcS4wMDgtNS41NDEgMC0xMS4wODFhMS41ODIgMS41ODIgMCAwIDAgLTMuMTUyIDBjMCAyLjY2Mi0uMDE2IDUuMzIxIDAgNy45ODItMi4zNDYtMi43NjYtNC42NjMtNS41NTYtNy04LjMzMmEyLjgxNyAyLjgxNyAwIDAgMCAtMi42NDktMS4wNTIgMS41NzkgMS41NzkgMCAwIDAgLTEuNDAzIDEuNTA1eiIvPjwvc3ZnPg==;" parent="2" vertex="1">
                    <mxGeometry x="195" y="50" width="40" height="40" as="geometry"/>
                </mxCell>
                <mxCell id="13" value="SSL Cert &amp;amp; Key" style="sketch=0;outlineConnect=0;fontColor=#ffffff;fillColor=#a20025;strokeColor=#6F0000;dashed=0;verticalLabelPosition=bottom;verticalAlign=top;align=center;html=1;fontSize=12;fontStyle=0;aspect=fixed;pointerEvents=1;shape=mxgraph.aws4.ssl_padlock;rounded=0;labelBackgroundColor=none;strokeWidth=2;" parent="2" vertex="1">
                    <mxGeometry x="300.485" y="75" width="41.05" height="40" as="geometry"/>
                </mxCell>
                <mxCell id="15" value="Github" style="verticalLabelPosition=middle;html=1;verticalAlign=middle;align=left;strokeColor=#FFFFFF;fillColor=default;shape=mxgraph.azure.github_code;pointerEvents=1;rounded=0;labelBackgroundColor=none;strokeWidth=1;fontColor=#ffffff;labelPosition=right;" parent="1" vertex="1">
                    <mxGeometry x="200" y="720" width="40" height="39.02" as="geometry"/>
                </mxCell>
                <mxCell id="24" style="edgeStyle=none;html=1;entryX=0;entryY=0.5;entryDx=0;entryDy=0;fontColor=#FFFFFF;" parent="1" source="16" target="17" edge="1">
                    <mxGeometry relative="1" as="geometry"/>
                </mxCell>
                <mxCell id="16" value="&lt;font color=&quot;#ffffff&quot;&gt;Github Repository&lt;/font&gt;" style="verticalLabelPosition=bottom;html=1;verticalAlign=top;align=center;strokeColor=none;fillColor=#00BEF2;shape=mxgraph.azure.git_repository;rounded=0;labelBackgroundColor=none;strokeWidth=2;fontColor=#CC0000;" parent="1" vertex="1">
                    <mxGeometry x="340" y="760.49" width="40" height="39.02" as="geometry"/>
                </mxCell>
                <mxCell id="25" style="edgeStyle=none;html=1;fontColor=#FFFFFF;" parent="1" source="17" target="14" edge="1">
                    <mxGeometry relative="1" as="geometry">
                        <Array as="points">
                            <mxPoint x="770" y="780"/>
                        </Array>
                    </mxGeometry>
                </mxCell>
                <mxCell id="27" style="edgeStyle=none;html=1;entryX=0.5;entryY=1;entryDx=0;entryDy=0;fontColor=#FFFFFF;" parent="1" source="17" target="26" edge="1">
                    <mxGeometry relative="1" as="geometry">
                        <Array as="points">
                            <mxPoint x="580" y="700"/>
                            <mxPoint x="440" y="700"/>
                        </Array>
                    </mxGeometry>
                </mxCell>
                <mxCell id="17" value="Github Action" style="shape=image;verticalLabelPosition=bottom;labelBackgroundColor=none;verticalAlign=top;aspect=fixed;imageAspect=0;image=data:image/png,iVBORw0KGgoAAAANSUhEUgAAAZEAAAGRCAYAAACkIY5XAAAmtElEQVR42u2dzZXjOJaF04Q2QSaUCTIhTJAJWnbXZrTLytrQBJrAZWX3hibQBJpAEzhBAspQRigUkvge8B7w3XNwpme6uicEXuDi/X/7BgAAAAB57Jr5X7vv8373Y355/Z+n3V9z87r6izXfuaaL/0y3/neFtd/9Pf/BTgMAgHfBeL3MXy/1w4VQTA+IhMQaLwRmvwgYXwUAACyLxo/5uF7c6QXjEWFpV3H7Pu/4agAAkFM4FrfUcimHy3l2uIbVUsIFBgAAyYVjcioct6wUBAUAAMSFY3FVlSkcnwvK4pojjgIAABvEIwTGh0qE47O1xFD2sAEAAO4RjpCGe6rI6rh39YuowhAAAEA8trm6EBMAAEA8EBMAANgiIKGuA/HY7ubawyYAQD3isVRw+63tsLo6ChgBAOW7rkJFOZe+zpoW6w6mAQBKtD4OuK4SVsJTtAgAKMj66LnYM6zv8wkGAgD8CkhoUYL1kdsqIVYCAHAnIKEFu7+Ywu/zRa6twWms5AVWAgDsi8frq9f4RdvHViJhzseG9Nj1t4b/jkOsdemMZ501MBQAYFlA9sbcV2F+x1KPkjDQ/GuCYhCW3pyI0tgRAGBQQA5mYgCJReOu/QnxocaIpTKSvQUAsHNB5o9/BOFwEkCOre1zC8pEpTsAwIKAtBmD4I33zKNooXQZ04APsBgAkP7yy1d9vjYeLM2vHxMSmiwxJYQEAJBBQIYc4lHF3uboaoyQAAAKFZAqW55nEROEBABQkIDQTPDbLzdXi5AAAPxfaOliIC21DB/EZJ9MwBESAICCgLSJXFd7dvummJwQEgCANwFJUQfSYH3c+T1CnYm+VUJBIgBA4OV7oDlgteI+ISQAgC0CslevNMf62PaN9Nvt840AAE8JyE75cmrZZdFvpene6thlAMCjrpKBoK2j76XdQYApiQCABwSkIf7h9tu1ikKyZ4cBALcvoeBjJ0jr+xse1b4h8REAwBcukQkBKeBb6mXVER8BAHzqCukREISEmBYAwIoLBAEpU0gm73NcAACSF42OGwsBsSMkJ9xaAAC9S0YjNZQsLGvfuOUbAwA0Xqn7Enzma8FdcMl1V2I74/p/W17kFaepKsS8RrK1AOCFOnquRI8+/+EJn/6ptgtQZR4MRYgAVCwg8sH0IbEFNQgEiKu6BGMH4ElYSHacJgBqExD5YHqyQjSFQPFQk5tLIWOLPmgAVCci0hdxoiCr8nCsamaaiO8jmXgAYIVsuXwLEJC3YHEFWUeRA5LxsJ6TBQBWiNkMnUTTFX+rgyjd1y+emUeDRgCwQixeHAmGY93qOnws3K3VEBsBAOSyQpJcGgppyI8H3gv1+Ss8KnacMgDKfnlOnrKxEsx4f6gmosTAu/AeY40AULAVchDMxkri5jFghXyMARXo+xesZmfmCAAFWyFS1cpjkr83FMbNRldX0mUpGncqPI4EQJ0CInkhJ+qNpdR9lsD754+MztMjAwCQ9oJovV0QSkOyNFZfQkB5bWJJui8A4JMLefLWoVdpVK9q4J3HBgF2AMoTkB/zi0c3hSsBKSTwLuj2nDh5AODKyjonxKmI/HqJew28i7kRGVoFAK6snKmbIrGK0O5+yhh4d3eRClquuLQAwJWVtsmitIis/z2hKrsj8P7Q3o+4tAAAkq6sXYa/XbSzbKyFGLNZJY4C72Lp1bi0AHAvIhKX5pDpbxdvTx6tkoY+XF+KyM6rBQsAkLoIpDJtMhXUac64iHszZBQT8wOwhPaHwkMA3IqI1Az1TP78FIOSMgfeTQ/A8s4fAMD2S7jz6spKJSIXrpsuax8ugxetmEsrcWo4AEDuEp48N9NLPbI1ZrJN9OESd2mR6guAOwGRiodkDALnmPttIPDeWwq8C2VpDZxIALyJiMzskKxB0RwicrF/+6yBdyMDsKRaxHMiAfDnymq8uyFyisi7l/hUcx8uuvoCUKeI9J7jIVZEJArJLnNb+qwDsErgEgDg8YM/eY6HWBKRdy7CKWPF+yGTS+tE0SEANQlICA6792NbE5GLvW1rskqE+q/1nEwAvIiITDA0+6G3/Bsy9+EaUgqJUL0IlesAuBERmZdj9tx+D0KYcQ58WiEhQwuAqiyRk0SKKSJy598ZanJyBN7bhN+i9x5jAwDcf+CbElIyvbnksvThStR7S6QtDGm+ALgRkR4RyRPXyTAAa0zh1hKxbpktAkA9ImLkd7hNDkgaeE9QgyHS0dfRUC4AEBFEJHuGWcI+XOqZTyIZf4gIAG5EpIjZ2KXUJiQZgKUctEZEAEBE/F2+hRW4qQbelS9oodojWsIDgIjwOzZexlp9uFR/q1AXBKrWAUBE+B1CVon0AKyR7wEA4LBXdGlJB975HgAADnuFl5ZQmxpEBADAYa/t0pJsL8/3AABw2Cu5tBT6bU18DwAAh73wS2uNg+h0/tXNzpJpB4+IAFCJiAyIiMpFrNkKpUnwtzPdEIBKRGSi7Ykhiyq84jvP3XypWAegLhGhd5aV6Yxp2sNPCX7HCyICACLyyIHfISIb/vYU/bISuolKGXQGALjv8i1igJDjeSJNIvFYrZAUgi8kIntOJwAeRETmwB8QkadcPmNCAUn2ui9l0BkAoCLXg5sZ63pNFc1k0Ym45hJMYAQAyFxqEumYHSJyt2BPGQRkShm38lBRDwCQOvAhqGu+K6xnEYlCPWQQjyAgykOoFPg0cDIB8CQkEpdVZveDRRGJgfM2k3isl3FKAYmCeaBaHYD6RGT0Hgi1dnFJNkt8NpU3h7CLZJuR3guAOxHpvB98KyKSMXD+Zn1kFHQRt52BbD8AwGMX38m7C8LC36/ULPGR4HleIZcZizundsEBALZffnvvGTU5RUS5WeJdf7uJrgFOBmYBAKy+IJUb+1kTkbhvXUbxGHPu+ZVv0BJUB6BWIZF5STcZ//6kl1eiZonmAufqHCKoDoBbEWk914ukEhGFKYPm03Yf2JeZdicA1CoiMvn92YKi2iKSoVnix8D5q/Vj+BHSEA8BoGYRkYqLZHJpaYpIlmaJ79rKWO8lJbQ/xEMAcO7SGry6tDQusCRTBr8KnDtw70hl91m2tAAACV0SOTKGpEUke+B8qTlx0slWrLUL9SEAOBcRqeBohq6+UiKSuVliqPlwdJkKukFHTiAAZVgjo9BLeudMRIbsgXOH7T6ixTZ7Tg8HAFh0aSW+FDJe/hKr9TqESezRgSsLAFxaH17WCS9Gp+Ixeq6LEEsLx5UFAC6t3NXHmVNwq6zM9sgTAECKy0HOz53MGsmciuuuWaIhK2QuYT8AAJcXhFzGTbJXpqDwaVacvxTDETnLjwJDAAp1abWCWUfqL81YGGhVQBqvgXN1K6QgYQUA/H5R7CWzjxIJX29MPIbSGgpGK3UioA4ASHspJ7hMRV/IBTdL3LjHJ0ErhDYnABRujUheykMl1khXaqBYMP07eQo4ACCfNTJ6CrILX3RupwwqcWEgxRkAkNdFlKAyOYNbqyn9VS3qxsIKAQBrxIFbq6VZolHrDisEAKwRD321hF/PVQTOP+xhyMYasEIAAFtf9rIB60TxgziVcBINnFd0CYpbdFghAFRrjex38q3Pdwlf023NzRKNWKDUhQBQuTXSiRfjpez0G6ra2wctk87jnI/Ne6WR5UZ1OgDVWyM7hZGxXabfso8xkza66s6rW//vixusUt+90nemRxYAQK3RYcvOGvm+8oF0OvUCAN5dNBqXDC0wShaQE7sLAHi7bLSqwiuMPRh7HGi0jBnYWQDAxwtHqwYDIcklIDrFmcxOBwDcuHgGhMT5NwwuLJ2mlbgoAQBfWCMaWTz40dMKyKDVEoYdBgB8fRGFinCt3lRkbek+AAa1tjC0NgEA3H0hLV1sNZscciHJfq+QGDGpfbPKKvsBADJC0quOmSVAK2WB6LbJJw4CAHjqcgr+9VF15CwB963fR7s9Pu5HAIBhN0m8qHBvPfVdBuXvQj0IAEDEXbJPMooWv/u93+OU4HsMCDsAQPLiOjCWtgrrI2lLfwAAQkKsRHvfl9hHGusj7D0JDwCAAoQkpAJX7uKK+z0hIAAAhGRL4L0y90rc4zHhHiMgAICihSSISeEXXQbxQEAAAFUJSXBzFTSWdY15hMFgY4a9REAAAFUKyTkt+OTV1RVTp9uM+zeQhQUAyH8ZpilI/PpCXF7zxi/FuFdNJquDOhAAgOnLcch8MV6+sE8WMruiq+olWhyjkf2hlQkAwKCQhF5OnZGL8n2q8Gm9zJUtlVVMg4uvMSSqNFMEADgSk3SFcduEZRG8IC7HNT5xXp+4edZ5Hed/JgjSKf7W3qRgfCzg3MNOAIAXIdkbiJOwCpnfslp4Z+EOrsE+ruku9+blo2GxFG88FkBF9xS8wr3FKs99dRFHapRn2swxTtWu1iipzuXfR/DKrVVywCrJkFzgiLwxlnQy4BY8H/4XTm4hlga8KkZIdlglidbroXHDiXDAR7NxpNByZ88JdnbXwKuCP3AwJ0cue7UstJ0TDvTO9nZcXRP4u+EVvDLim/SRweWJiObN5Ex9wTRekQ2V/vAKXtlxcbWIwKa03ROHPNtigBq8gldmgl/+zNDs4mGdaDHNe+RbAHgFr1KSA8vEv3jsKnwUjARK4RW8sufmIi3YWfAttrSv+bt1vB7hFbyyFIDPN2fDRraVk7zySl+Jn1uM1APAK3hl1tU1VWC+upqRElMrsRqvBEg5ufAKXtklV0mCMq4ZGQ7bI8QWEhxs5rbAK3jlWlAahy6v3nNfndgXDTcDI4jhFbwqzH8acsdbg63ZeyuDsoT81AOH+OHMugOnFF7BK39xlPRm5ptgHEp7KRgZhey5rxkHHl7BqwpFZLiYM9D8GkYVLYtaZggYPuj9jTVx4OEVvAJ5RYSRslYOen85/OcJV+c+9mzrsv8WDjy8gldVWSIdBz3L4QhZa0q58XGq3TGbH77yAw+v4FVNIjJVu4chW2ZMGijMMGsh2wyKSg88vIJXtYnIXGMqXTzoQ8IsExN9wRLPpaguTRNewas6RaTCKtFEkyjNNpWM/OmT7EFFhWPwCl7VKiJjZXuXYmiYi7kJsfZI23c/wCt4Ba/KFpG5lpbMCeprBm+mdnTBaLfiaOAVvIJXZZO2rcRfPSkG/E6u90e7KWChXVrhFbxCRN7IusNf/bSPel/QhTjgx4ZX8AoRwRr5+BrScTMUKL6KUzg7eAWv4FXJPtgSiavnbii6ZXUsKsP9AK/gFSJStzWiFNyrYqRnzLKRr6ouYO/gFbxCRCooPowtuMX7EVXGtQPBYngFrxCRKsmsUPhU5dQ1BReE62AovIJXiEgF3X0V9qhqc1khKNrCK3gFr0oVkQL60wi/FunXE/Z0qD2RA17BK0SkAhNboaL/AOtUMpIaeAVq51XJIuLX5SBrImMeX+6tbG2EKx82vIJXiEgF8RHhzBnSBq9fpk1t/IJX8AoRqcTsFu2mSgFTCvfDCK9ArbyqR0QcCYngpLUept3k4EGQW3t4BWrkVV0i4kBIRP2qhWR4xDGmh/iS7uMo1ZNEVpBgplILr+BVbbyqU0SMC4lg4NM9+aJr4Kv96LccekEeTsatEHgFrxCRGrK2xPypzl+LywF+wP0ybXkYiL0aDccJ4BW8QkQqqCMRdDm0BRz0KZX/uPR9h1fwChHRrmw3ovRi6YGOg3FPH/SNaadCQWeT2TTwCl4hImlW9hbWQq0ThkoP+qZ4l1j6q8EWIPAKXiEiKa2STK2YY7Cv2gIlkYO+If1UrBDP2P7DK3iFiORZY+oMLjH/qceGgHIHfV2ZX+ym/NfwCl4hIvnF5JTCzSVk9g61H/RNh11mNsRo7JzBK3iFiJiJmSgG4EXSAZ1NRdM46JsOe/h7tv8NljL+4BW8QkTMCspRMtglQnpH2TNaB33rq7m07wCv4BUi4mO9tUxYfNDLb3t0ZXwpFXTQN89hWB8IBQVB4RW8QkS+MLMVRlN6XQMHfXsAWLTTLbyCV5K8cuZWdCMiUeUREqHsjfW7LK66hfRh7aV8seoHXWAaXGEWMrwqi1cdyqEkIgjJ9ldKzCC5VV3bbjn0CQ76IMTLHcIBr4zyihb8miIS/zsP1R72JzPHYjHavXns0zPJBCkOumTmCuIBr4zyakA5lEUkEbGsvhj3ygf9qQPv7aCLZdLAK3ilwCuUI4GIXJC457CrBfvuOvAeD3o87D0CAq8s8grlSCQi7/yxVbwqn3wtbuszduPAez3oiAi8sswrlCOxiFwEtHoO+1WBnTUOvOeDjojAK8u8QjkyiMi7oPvEYRfPZvvtwHs/6IgIvEJEEJGvTO2Gwy5+Ua4HvoSDjojAK0QEEbnn//euuLqSBw+BwkU5lXDQERF4hYggIs+IiX8314NZNM4ssiFlB1NEBF4hIojI4xklX1fWlnXY/RRmDqlbYCMe8Moqr1AOoyJyJQOkcWedPDiJMcaHJg46IgKv3PCKticeROQTQRkcHPaH90IoHbOsg04DRnhll1eIiDcRueLyeonVuL3B19ZTHT6NJhgMuaa4Vd1/DV5Z5xVz1j2LyKfCEoZKHX61uA7DZ/onVrYZzMYO/JBzDKjQPJHxSQ5oLHhVCq+YJ1KeiJjzw29pqW3jwA+550iLXLxPdr6FV/DKC68QEZsiMuQmWeYDn/2gi126T7Q1h1fwyhOvEBGbItJZ8JlmOvA2DvoS8yosDRNewStEpBYREfLFC108bW0HPf7uprQMGngFrxCRekRkb8nkTXTgzRz0+Jslik0beAWvSucVImLXpTVbIpvygbd10KUuW4PBT3gFrxCRekREIiVzEv6b2tIPuujvNPa74BW8QkRqEhGpSt8HW1UkPvD2Drpcq44BXsGrWniFiFjck9BmZbZIOqEDP5h8qcsEn83yEV7BK0Skos0V6yT8YPfVBAfeZMsG0YaBhvP44RW8QkTqERGpeQy90t/XlnLQRV+LQmmw8ApeeeIVImJzX3ZifmKljI4HD7zdgy75WjTORXgFrxCRijZYsPW82ismVuGON8ea/piPlbzOFy7u4BW8qpFXiIjNvTkIklB1jy7a43frWv61g5x2wWCzm2pieAWvEJFaRER6OhyBOc1XuZtCMHgFrxCRivyFgoE5symQheztCK9A7bxCROy+GiWreZmK9k1h/K1wAR68glceeYWI2DWNW4gpyrmd8FjjEV7BK3iFiNREzmr92PEFPnB5wit4hYhUlUMt7GcNKZKVHXiVg+78tQiv4BUiUouISGfUVHjgVTrGKrT/gFfwyjuvEBG7e3UQJ2sFBz5elL3C3vXwCl7BK0TE26un58BndzWEPSuoihhewStEpJ792im4H4oM5MWq4VFlr4y33IBX8AoRQUQ+3zOp4UKf5PuXUDgWXTST0h718ApewStEBPfDrQpkp26I6GbQnN1dtLsBXsErRKSWfdPJqnG9r3d0fqWPEbyCV4gIIvLONzsrr9E6waM/v0+wFw28glfwChEpbf8OCUi++mut5a7HQ96m+v3wCl7BK0SkVD92KsIHv3bmbJvImbS/ucIutfAKXiEiHPhZNRC4TG5LFChdX4che2hI/jsrDnjCK3iFiNR14FMfhDf/9nLZLAFIwZfVyo3Q2ynX75oYuASv4BUiUs9e6lXRPnP4wyjTxbceDu3+2kWwBnGXf+9tDGpr5Ddw0OEVvEJEOPAsDjq8gleICCLiwZfNQYdXLHiFiHDgq15ky8AreIWIgHf7e+AQ37U6Djq8gleICLi2x6ECeeJAwx94Ba8QET7Wc/usN0DHt5+aCXLwCl4hIojIA/sdCqt4PeJmgFfwChFBRJ7e813Fr8eJjqnwCl4hIoiIzN4fKns9NrwS4RW8QkQQEWmfdqjoLfnQ9/QpglfwChFBRPRdEW2Bh3zP14VX8AoRQUR4QT4W3OSQwyt4hYggItkP/cFRv6Rx9U3jXoBX8AoRQURMuiQa9TnTz82eaMmKgVfwChFBRLx8r6VKOdQE5ErlHNaLhwMOr+AVQEQK+X7B190puCimGMQ8SQ8mAvAKXiEiiIjlV2UYCHSMA4TOQ4H6q+v8z4S1J3gJ4BVARAAAACAiAAAAEBEAAACICCICAAAAEQEAAICIAAAAQEQAAAAgIgAAABARRAQAAAAiAgAAABEBAACAiAAAAEBEEBEAAACICAAAAEQEAAAAIgIAAAARARa+KcODgAL+/N/8x7//mff/+Tkf//xnPi3r3z/n9vV/76+t8z+z/nOv/7llsYuICCJi8fsxxhQIY7nwl8v/VQy61zW8rllwTWeR+c9/55f/6+EVIoKIpLUyFgsjWBFzhrUIVbOICl+jLCtjsTCiFTFnWItQNYuo8DUQESD/jXbrxf3XPGYSjluWSouguLU2duvF/XMeMwnHp5bK6iZDUBARsOG7NPO/Xvf1oOCi0lpjjKns+Hp2sbiO/vxnPii4qLTWGGMq8KpoEflr7thJUfE4xVf+7HS1BOdNiscpxiNmj2uxTgjOW720tl8aPTsp4rJqHQvHVV4gJvldVjGDai5o9YiJtQtMwDfOLlZtedwjJrgjsDw0xAReGRGR7QFb0j+fsT4OhYvH+9XAE33EmEfJ4vF+NaQJ5xeRXiC4jnn5mOuqr0g8fs/oIptLzXWVMUU3e0YX2Vx5RWS7L/7HfGQn79jrUOMxVSogvyVjYJXIIdZ4TJUKyOXqsEryvIxPZGgliH3Ua318bpVgwW6OfVRsfXxeZ0LgPbmI7AmuK+7vUmWO9UGdkXTsI1SZY318spbEAliS9pW8/TJ4vSzZzQ8CfUAocG+JC0gIniMWuLdMxUVG4iIGY011rQEh+RoF1n2o9+VCSPxceAM7iYBsbp+CRYuAaLRP+R+88uF2qbyoLLoGB8RgY8AdIfkNMYA+IAbbAu4Iia6I7EQugIpdWoYEZFxjDKEh4uE8aOqaq+jXv7fMC3kbXjUgJAjItdf8EmOIg6YO50FT11xF539vqd24GF41ICTERe66wCrevyGjaLTSg6MuBl4NCEk+ZLx8x3NLdsmYwsXAqwEhKe8SbIRcWntiIElmeTSpLtnVUg2FkkOGWpJqXaQZYiBLynCT6pKNVfbHDIIy0XdL46JYXrJCDfcQEMUMpu/zIbPrc5/8N1eYtZVYQIbFRZX19y4usMS/mawtnQtxIsD+0IWaqg7EXFv1xO3rq3qYJKwDMddWPXH7esZYGH5Vt8XvVahE1493GG9YmLChZFOFgIRKdP0gufGGhQkbSjbc/FYvxoKDojETa6IdyAd3qO4c+MI7AMdMrIl2IG9YxE59DjwdgMWtkREXxJd71KvGAJwKcBTXlkD7kxem7st78JqVtIirsouLQLvwi/Io+Jresz8PzicvIIisPHCryMdJzFJSm09eQhBZeeAW8RGjrpqxpMya6P+flNxXhwJdo6OSW6uootbo/5+U3FdF8SrGjLTcW/T/E3TXtAREk7mxii2qU6ziL8qtpeTGKraoTrGKH7eW8It7xq31wUWDgDwnJD1urZsuGgTkOSHpcWvVY424dmspZWNV1dZj7ecl7wLcF3ARTgjIJiuuE48hMRnRqDXieISu0AjhqvtCKbm2XPdqiz2kEBB7rq1qewBat0ZcBkRVgumVNhZUERKnCQkawfRaGwtqCElpCQklWSPuCsbEhfR73eRUEGWXr0bpuofaLz0FUcYawZUj9nIWrQOBUb+aOFYrzPHlLFoHAqtCE0eE2e5FOtYoJMICygxxvb119WoUjoXQjVZvb7FGxA68XJt4N0IinpHFgKVrrsKhNjepdEYWA5Y+QjQ+Ql8t0QPf1SQkonUhzpopJttj2U7ILvL7JetCvDVTTLbHsp2QqRsx+zI3LiSCr2RM4tv73AiK9a6iVzK8ur3PjWDdyI4dte3WMhccFc1K+4E5nOxxYtziixlEuFmcuQ2x+ORfjm3pg4cEX8eYwveJ9qkGq0/wdQyv7nMdnrD67L4cB0Uh6XO7JcSy0b7TPiG5NWI4gUGq+yxtOTJYIyQwCB/6EBCdVIcPZXIDCQZ7B5iSwRox6tISDPbCqwzWCC4tjUOvGR+56LeV2ioRGzr1nUKlTNaIyUtWaugUBXDZrBHE2/SF+/XsiGSvAKG25RPseGrvZeJtBos6hdqWw6snINVihqJO6wf/nnbyCV73DOLK6tLal5oRJ+TKglfPiIhUOxQy4ooQElUxEbvEqE7fwqWxNBGXusQI7m4S8RERt3/4h4RCchaTk2TMRCi4SzrgNh41paVWCwV34dU2EWlIrbZ++PVTf78KwB+2+sKFWrvQUXXLNxBK2DB2gXV06s38Df47v0hYg+xkGiHpMwnJm6AsAf8nXEoiIkiFuoQ1UpRLUaTVCf54ie+AS9HRJdBmFpK3zK5QvHhaX7hfFP+VmhnkkD99SWJOZpCZ79Aj5giJbEwlXFaXy1w8JPZbOkaXSB/X8q+PKRvDLfUJMVXy/Df0i69f42UmEptSTAtfLvQ1WP56oax78Mm6+GbEQwxAIjZF0WFqIZFsp+5jdcIvpyZ3xkj0JX+V2dJLCpoQb8RjCLHqvJOcnnfn6rhNZB5CxKZ8CsleuUWKnSX0+o1VtkPu6XYPZrRMUlaJUKp1b+0C4vWbF0Kp1mRoZRKSXcbMrZQicsjou7VwaU5SFoklEckpILQ6EX8YISLOxeRUuIjsc15YUpdNjMNMOQ+ZlTRf4Sl5dO31LyKk+Rpxb42IyKckH3MHYLcWZkm4tSQSHTJahYiIXRHpEZEShCTUkzTFicjG9F6JV6/EBb61RYSED9+CiIhOIiS9FxEBCmISZnf0pYiIAMEl2oUfS/AbWxARqSpnLi1EBOi7uA4luLgE4iHZ89hjZhgi8k10vCqXFiICkri4QuB9QkTyupIQEUQEEeF7ICYORUQij10iCLt1EpxEQRbuLC4tRATU5+bamJ0lMMpzkgjCbq3Klkg1JrBOdhYiAiTFZB97cU2lp/huGeUp1ZJho0UkkmYs8a2tXDqIiCkRmRARXF0Hobkf8kugc+wGa2SSTAV92hoR6nIq8D0Gib/DQrEhnWNFRWTr9xjYxZIEJQwwas24vIR6Z8WLa8rRt+qdmD06B0OkGWRsk0PbE3pniULIPUnbk4JdXrtopbQZ+3SJdfiMQnJP0d+oNSgnCkl3l4gJ9ncSasAo2vk2p5DQOVZMRCQaMNJRuSphWYoZwzCqU6yQP88N0bJcxE3deHldswiGVI354uHrrlhHi8g10nNNrM4TydgKHheKzFlinghQFp3CZns7/g6dQHzqqPX3XQ6lWv7nrbX886T52oDQA+DIToJbl9dkIUOL71DWd5DICCJDi+8AfFxevUU3SnUuyMJm3UukCeNG2ejKEsqyoxkmuH2Bycw7wX+95Rv8mI8WZ91vusBk2qfAq21CLtHclFn34MsL7EUo1XfHbj5tDQ6WsuRELjCh9inSCQyVichAlhzQv8DCnJPZclC3cEtwV+L+C3VGJqj7JATb17D/INlLGNfDcyIiMz75b526mdwvYVxaz0GqG7NWPRYoT0QaK320Ktz7sbR4yIWINPTRyrb3I/EQkO4ik4qL/IX/lH2/uMik4iL45dl34OJFPBFgT77nvZUmmIov4okAe/I972mCCXJcaC3WSML9lumVtazJ8u/c0uafV/ET+y3TK2vtDcduglyuFayRlFaIcdGWnJSINZLOCkG0wbMXm1STRlpH37ZCDpaGgiW42EYhIYFXNyDZdZlkBvCsiDSWhlUVucehLkdqWqWL7BmpLC389J9DYMw0WVlA5IW8E2wRP1rq5VSoULsoBBOe2z7Sy0lZqCkwBBsvudbiwKoi9lYy7rRYM45EWirAjr/+ioAIxp2kR06DOq2RvfD43AO7Ku7GWlbj6fcLZg2dO/zCK3k3lti4Z4A10ou+mP+mdYL4+GKHGXBi9Qvn8cS05JBqLUMGHDBujVQeHxF2Ebp1E0pbI7XHRyRdhLgJgXVrZG3QWKOQCM0KcRsLUbZG1gaNNQqJ0KwQYiFA1RrZCV9+1dWPiNaDFDJFUjhTq8r6Ecl6EKZIAm1rpFEQkq4Gi0RFQApxCwqno55XV8NLWkNASJsGehehfEZRFa4tBRdWUQWcChlFVbi2FFxYFHCCJBfii8qFuAhJgT22FILovyy4oi5E2dqG34SkxAwj6SD6pQXHLQdSXIyd0sU4lTLIKlptg9o+FWi5LReY0sU4ldL7KVptg9Y+4cYC3t1aRQSLo7Wmtz+F9iFTdGsVESyO1pra/uDGAmkvSvnakY/uLWdFiVFcG+V9KbqCWKF25IN7y1tRYhTXRnlfqEwHWYTkpHxhrpemB9dNzL6atIW1Bl4tFoPyhblemh5cNzH7atIWVm4zkO/y1IuPvI+VnCyKSbTI+iR7UFFxpmJ85PdWKa+CZVFMokXWp9gD4iDAggtnSHCJmhKTGPfok/3uyvqNKQeQzYpJjHv0yX43/caAISEZE12oc3Qbtakzudaq/eDCS/lbq+18HIVkTHShhiyun3ObOpNrSUGOLryUv5XOx8CYkLy+lBPEBK5XbS9xE6WMpfV3hWLBIcNvq751/vJSThATuFq1vQazlTKW4u86JrS2EBCAkNzbj2u1FpZA94OWSrQ09tHa6LL/Fmav5BaS3/pxLdbCcvk+aqkslsbyn4nWRpf7tyAgACF5Vlw+X/b+XgTEopBcFZcby9zfi4AAhKSGhYB4ExIXCwEBvoQktI4fEIWHs8846F+4hnLFERyvCQEBPoUkZG31iANpvJKIWVs94kAaL6hFTPRbgXhfQ83jgp9FglYg3tdAISEoR0i0mxL6XfQs2iIk2k0J/S54BYqNk+DeOruvftA1VTBOgnsruq/oxgtqsEqOlVslHe4rFffWsXKrpMN9BbBKyl4j1gdWiUp1PdYHqFhM9sl7UeVJ3T1hfSQVk33qXlSZUndPWB8AfPs1j6NEMWkRj3yI8ziKE5OlUSTiAUC5YjKtac3f5x1fFDERDZr/nJvFZccXBeArMUk7r0My5nHE8rCLxPM6JDsKH7E8AHjOMskzw8P4bBOwDblmeFifbQJA2YKyNHYMgjJktzgW4SDTqgxX1//mP6Kg5O7JNS7CQaYVACkEZenLFVxeTQK311k0jvS3KhtrX67g8moSuL2CaPycj/S3AsCKpbIIS7BW2ot5Iff1rwr/bLf+5xfBWNKPiW9gqSwt6F+FZbFW4qXfPyAwQ/xnu2jtHBcXlff4xv8DeKmErJhZlPQAAAAASUVORK5CYIJ5N5bYuGeANdKLvpj/pnWC+PhihxlwYvUL5/HEtOSQai1DBhwwbo1UHh8RdhG6dRNKWyO1x0ckXYS4CYF1a2Rt0FijkAjNCnEbC1G2RtYGjTUKidCsEGIhQNUa2QlfftXVj4jWgxQyRVI4U6vK+hHJehCmSAJta6RREJKuBotERUAKcQsKp6OeV1fDS1pDQEibBnoXoXxGURWuLQUXVlEFnAoZRVW4thRcWBRwgiQX4ovKhbgISYE9thSC6L8suKIuRNnaht+EpMQMI+kg+qUFxy0HUlyMndLFOJUyyCpabYPaPhVouS0XmNLFOJXS+ylabYPWPuHGAt7dWkUEi6O1prc/hfYhU3RrFREsjtaa2v7gxg==;" parent="1" vertex="1">
                    <mxGeometry x="560" y="760.49" width="39.02" height="39.02" as="geometry"/>
                </mxCell>
                <mxCell id="23" style="edgeStyle=none;html=1;fontColor=#FFFFFF;" parent="1" source="18" target="16" edge="1">
                    <mxGeometry relative="1" as="geometry"/>
                </mxCell>
                <mxCell id="18" value="Developer" style="verticalLabelPosition=bottom;html=1;verticalAlign=top;align=center;strokeColor=none;fillColor=#00BEF2;shape=mxgraph.azure.laptop;pointerEvents=1;horizontal=1;labelPosition=center;" parent="1" vertex="1">
                    <mxGeometry x="50" y="765.73" width="40" height="28.53" as="geometry"/>
                </mxCell>
                <mxCell id="14" value="Docker Hub&#10;Repository" style="shape=image;verticalLabelPosition=top;labelBackgroundColor=default;verticalAlign=bottom;aspect=fixed;imageAspect=0;image=data:image/svg+xml,PHN2ZyB4bWxucz0iaHR0cDovL3d3dy53My5vcmcvMjAwMC9zdmciIHZpZXdCb3g9IjAgMCAzMiAzMiI+PHBhdGggZmlsbD0iIzBmNjY5NSIgZD0ibTI3LjUgNS41aC05LjNsLTIuMSA0LjJoLTExLjd2MTYuOGgyNS4ydi0yMXptMCA0LjJoLTguMmwxLjEtMi4xaDcuMXoiLz48cGF0aCBmaWxsPSIjMDA5NmU2IiBkPSJtMjAuODA1IDIxLjdoMi4xNDZ2Mi4xOWgxLjA4NWE0LjcgNC43IDAgMCAwIDEuNDkxLS4yNSAzLjgxOCAzLjgxOCAwIDAgMCAuNzI0LS4zMjcgMi42ODggMi42ODggMCAwIDEgLS41LTEuMzg3IDIuOTMxIDIuOTMxIDAgMCAxIC41MjYtMi4wNjVsLjIyMy0uMjYxLjI2OC4yMTZhMy40MTggMy40MTggMCAwIDEgMS4zNDYgMi4xNjkgMy4yODIgMy4yODIgMCAwIDEgMi40ODkuMjMybC4zLjE3LS4xNTUuM2EzLjEwNiAzLjEwNiAwIDAgMSAtMy4xMTggMS40ODhjLTEuODYgNC42MjYtNS45IDYuODE2LTEwLjgwNiA2LjgxNmE2LjggNi44IDAgMCAxIC02LjE4NC0zLjE5MWwtLjAyMi0uMDM3LS4xOTQtLjM5MmE2LjIzNyA2LjIzNyAwIDAgMSAtLjQ5NC0zLjE1NmwuMDMtLjMyNGgxLjgzNXYtMi4xOTFoMi4xNDV2LTIuMTQ4aDQuMjkxdi0yLjE0NmgyLjU2OXoiLz48ZyBmaWxsPSIjZmZmIj48cGF0aCBkPSJtMTcuNCAzMC42MjVhNC41MTcgNC41MTcgMCAwIDEgLTIuMzU1LTIuMzE3IDcuNzQ3IDcuNzQ3IDAgMCAxIC0xLjcuMjU4cS0uMzczLjAyMS0uNzg0LjAyMS0uNDc0IDAtMS0uMDI4YTYuNzg5IDYuNzg5IDAgMCAwIDUuMjUyIDIuMDc3cS4zIDAgLjU4Ny0uMDExeiIvPjxwYXRoIGQ9Im0xMy43MSAyMi4yMDloLjE0N3YxLjU1aC0uMTQ3em0tLjI4MiAwaC4xNTJ2MS41NWgtLjE1M3YtMS41NXptLS4yODIgMGguMTU0djEuNTVoLS4xNTJ6bS0uMjgyIDBoLjE1M3YxLjU1aC0uMTUzem0tLjI4MiAwaC4xNTJ2MS41NWgtLjE1MnptLS4yNzYgMGguMTQ3djEuNTVoLS4xNDd6bS0uMTU0LS4xNTVoMS44NTh2MS44NTloLTEuODU3em0yLjE0OC0yLjE0NWgxLjg2djEuODU5aC0xLjg2em0xLjU1OC4xNTVoLjE0MnYxLjU0OWgtLjE0N3ptLS4yODIgMGguMTUydjEuNTQ5aC0uMTUyem0tLjI4MiAwaC4xNTJ2MS41NDloLS4xNDZ2LTEuNTQ5em0tLjI4MiAwaC4xNTJ2MS41NDloLS4xNTR6bS0uMjgyIDBoLjE1MnYxLjU0OWgtLjE1MnptLS4yNzYgMGguMTQ2djEuNTQ5aC0uMTQ3em0tLjE1NSAxLjk5aDEuODZ2MS44NmgtMS44NTl2LTEuODU5em0xLjU1OC4xNTVoLjE0M3YxLjU1aC0uMTQ3em0tLjI4MiAwaC4xNTJ2MS41NWgtLjE1MnptLS4yODIgMGguMTUydjEuNTVoLS4xNTF2LTEuNTV6bS0uMjgyIDBoLjE1MnYxLjU1aC0uMTUzem0tLjI4MiAwaC4xNTJ2MS41NWgtLjE1MnptLS4yNzYgMGguMTQ3djEuNTVoLS4xNDd6bTEuOTkxLS4xNTVoMS44NTZ2MS44NmgtMS44NnYtMS44NTl6bTEuNTU2LjE1NWguMTQ3djEuNTVoLS4xNDd6bS0uMjgyIDBoLjE1MnYxLjU1aC0uMTUyem0tLjI4MiAwaC4xNTJ2MS41NWgtLjE1MnptLS4yODIgMGguMTUydjEuNTVoLS4xNTJ6bS0uMjgyIDBoLjE1MnYxLjU1aC0uMTUyem0tLjI3NiAwaC4xNDd2MS41NWgtLjE0M3ptLS4xNTUtMi4zaDEuODU5djEuODU5aC0xLjg2di0xLjg1OXptMS41NTkuMTU1aC4xNDd2MS41NDloLS4xNDd6bS0uMjgyIDBoLjE1MnYxLjU0OWgtLjE1MnptLS4yODIgMGguMTUydjEuNTQ5aC0uMTUyem0tLjI4MiAwaC4xNTJ2MS41NDloLS4xNTJ6bS0uMjgyIDBoLjE1MnYxLjU0OWgtLjE1MnptLS4yNzYgMGguMTQ3djEuNTQ5aC0uMTQzem0xLjk5MSAxLjk5aDEuODU5djEuODZoLTEuODZ2LTEuODU5em0xLjU1Ny4xNTVoLjE0N3YxLjU1aC0uMTQ3em0tLjI4MiAwaC4xNTJ2MS41NWgtLjE1MnptLS4yODIgMGguMTUydjEuNTVoLS4xNTJ6bS0uMjgyIDBoLjE1MnYxLjU1aC0uMTV6bS0uMjgyIDBoLjE1MnYxLjU1aC0uMTQ4em0tLjI3NiAwaC4xNDR2MS41NWgtLjE0N3YtMS41NXptLS4xNTUtMi4zaDEuODU5djEuODU5aC0xLjg2di0xLjg1OXptMS41NTcuMTU1aC4xNDd2MS41NDloLS4xNDd6bS0uMjgyIDBoLjE1MnYxLjU0OWgtLjE1MnptLS4yODIgMGguMTUydjEuNTQ5aC0uMTUyem0tLjI4MiAwaC4xNTJ2MS41NDloLS4xNDh6bS0uMjgyIDBoLjE1MnYxLjU0OWgtLjE0NnptLS4yNzYgMGguMTQ0djEuNTQ5aC0uMTQ3di0xLjU0OXptLS4xNTUtMi4zaDEuODU5djEuODU5aC0xLjg2di0xLjg1OXptMS41NTcuMTU1aC4xNDd2MS41NDloLS4xNDd6bS0uMjgyIDBoLjE1MnYxLjU0OWgtLjE1MnptLS4yODIgMGguMTUydjEuNTQ5aC0uMTUyem0tLjI4MiAwaC4xNTJ2MS41NDloLS4xNDZ6bS0uMjgyIDBoLjE1MnYxLjU0OWgtLjE0NHptLS4yNzYgMGguMTQ0djEuNTQ5aC0uMTQ3di0xLjU0OXptMS45OSA0LjEzNWgxLjg1OXYxLjg2aC0xLjg2di0xLjg1OXptMS41NTcuMTU1aC4xNDZ2MS41NWgtLjE0N3YtMS41NXptLS4yODIgMGguMTU1djEuNTVoLS4xNDZ6bS0uMjgyIDBoLjE1MnYxLjU1aC0uMTUyem0tLjI4MiAwaC4xNjN2MS41NWgtLjE1MnptLS4yODIgMGguMTUydjEuNTVoLS4xNTR2LTEuNTV6bS0uMjc2IDBoLjE0N3YxLjU1aC0uMTM2di0xLjU1eiIvPjxwYXRoIGQ9Im0xNi4wNDEgMjYuOTI5YS41MTMuNTEzIDAgMSAxIC0uNTEzLjUxMy41MTMuNTEzIDAgMCAxIC41MTMtLjUxM3ptMCAuMTQ1YS4zNjcuMzY3IDAgMCAxIC4xMzMuMDI1LjE1LjE1IDAgMSAwIC4yMDcuMi4zNjcuMzY3IDAgMSAxIC0uMzM5LS4yMjh6Ii8+PC9nPjwvc3ZnPg==;labelPosition=center;align=center;" parent="1" vertex="1">
                    <mxGeometry x="750" y="528.53" width="40" height="40" as="geometry"/>
                </mxCell>
                <mxCell id="35" value="" style="endArrow=classic;startArrow=classic;html=1;fontColor=#FFFFFF;entryX=0;entryY=0.5;entryDx=0;entryDy=0;" parent="1" source="28" target="14" edge="1">
                    <mxGeometry width="50" height="50" relative="1" as="geometry">
                        <mxPoint x="515" y="580" as="sourcePoint"/>
                        <mxPoint x="565" y="530" as="targetPoint"/>
                    </mxGeometry>
                </mxCell>
                <mxCell id="45" value="" style="sketch=0;points=[[0,0,0],[0.25,0,0],[0.5,0,0],[0.75,0,0],[1,0,0],[0,1,0],[0.25,1,0],[0.5,1,0],[0.75,1,0],[1,1,0],[0,0.25,0],[0,0.5,0],[0,0.75,0],[1,0.25,0],[1,0.5,0],[1,0.75,0]];outlineConnect=0;fontColor=#232F3E;gradientColor=#945DF2;gradientDirection=north;fillColor=#5A30B5;strokeColor=#ffffff;dashed=0;verticalLabelPosition=bottom;verticalAlign=top;align=center;html=1;fontSize=12;fontStyle=0;aspect=fixed;shape=mxgraph.aws4.resourceIcon;resIcon=mxgraph.aws4.route_53;rounded=0;labelBackgroundColor=default;strokeWidth=1;" parent="1" vertex="1">
                    <mxGeometry x="419.02" y="160" width="40" height="40" as="geometry"/>
                </mxCell>
                <mxCell id="50" value="" style="endArrow=classic;html=1;fontColor=#FFFFFF;entryX=0.5;entryY=0;entryDx=0;entryDy=0;entryPerimeter=0;exitX=0.5;exitY=1;exitDx=0;exitDy=0;exitPerimeter=0;" parent="1" source="48" target="45" edge="1">
                    <mxGeometry width="50" height="50" relative="1" as="geometry">
                        <mxPoint x="120" y="130" as="sourcePoint"/>
                        <mxPoint x="170" y="80" as="targetPoint"/>
                    </mxGeometry>
                </mxCell>
                <mxCell id="48" value="User&lt;br&gt;" style="verticalLabelPosition=bottom;html=1;verticalAlign=top;align=center;strokeColor=none;fillColor=#00BEF2;shape=mxgraph.azure.laptop;pointerEvents=1;horizontal=1;labelPosition=center;labelBackgroundColor=default;" parent="1" vertex="1">
                    <mxGeometry x="419.02" y="60.000000000000014" width="40" height="28.53" as="geometry"/>
                </mxCell>
                <mxCell id="38" value="port 80" style="fontStyle=0;labelPosition=right;verticalLabelPosition=middle;align=left;verticalAlign=middle;spacingLeft=2;rounded=0;labelBackgroundColor=none;strokeColor=#000000;strokeWidth=1;fontColor=#FFFFFF;fillColor=default;gradientColor=none;" parent="1" vertex="1">
                    <mxGeometry x="380" y="220" width="30" height="90" as="geometry"/>
                </mxCell>
                <mxCell id="41" value="" style="endArrow=classic;startArrow=classic;html=1;fontColor=#FFFFFF;entryX=0.5;entryY=1;entryDx=0;entryDy=0;exitX=0.25;exitY=0;exitDx=0;exitDy=0;" parent="1" source="11" target="38" edge="1">
                    <mxGeometry width="50" height="50" relative="1" as="geometry">
                        <mxPoint x="335" y="360" as="sourcePoint"/>
                        <mxPoint x="385" y="310" as="targetPoint"/>
                    </mxGeometry>
                </mxCell>
                <mxCell id="56" value="AWS Security Group" style="text;html=1;strokeColor=none;fillColor=none;align=center;verticalAlign=middle;whiteSpace=wrap;rounded=0;labelBackgroundColor=none;strokeWidth=1;fontColor=#FFFFFF;" parent="1" vertex="1">
                    <mxGeometry x="95" y="230" width="140" height="30" as="geometry"/>
                </mxCell>
                <mxCell id="57" value="" style="endArrow=classic;startArrow=classic;html=1;fontColor=#FFFFFF;entryX=0;entryY=0.5;entryDx=0;entryDy=0;entryPerimeter=0;exitX=0.5;exitY=0;exitDx=0;exitDy=0;" parent="1" source="38" target="45" edge="1">
                    <mxGeometry width="50" height="50" relative="1" as="geometry">
                        <mxPoint x="310" y="210" as="sourcePoint"/>
                        <mxPoint x="360" y="160" as="targetPoint"/>
                        <Array as="points">
                            <mxPoint x="395" y="180"/>
                        </Array>
                    </mxGeometry>
                </mxCell>
                <mxCell id="58" value="" style="endArrow=classic;startArrow=classic;html=1;fontColor=#FFFFFF;entryX=1;entryY=0.5;entryDx=0;entryDy=0;entryPerimeter=0;exitX=0.5;exitY=0;exitDx=0;exitDy=0;" parent="1" source="37" target="45" edge="1">
                    <mxGeometry width="50" height="50" relative="1" as="geometry">
                        <mxPoint x="405" y="230" as="sourcePoint"/>
                        <mxPoint x="429.02" y="190" as="targetPoint"/>
                        <Array as="points">
                            <mxPoint x="490" y="180"/>
                        </Array>
                    </mxGeometry>
                </mxCell>
            </root>
        </mxGraphModel>
    </diagram>
</mxfile>